<svg xmlns="http://www.w3.org/2000/svg" xmlns:xlink="http://www.w3.org/1999/xlink"><symbol id="arrow-left" viewBox="0 0 54 54">
<g>
	<path d="M27,0C12.112,0,0,12.112,0,27s12.112,27,27,27s27-12.112,27-27S41.888,0,27,0z M27,52C13.215,52,2,40.785,2,27
		S13.215,2,27,2s25,11.215,25,25S40.785,52,27,52z"/>
	<path d="M32.413,14.293c-0.391-0.391-1.023-0.391-1.414,0L19.501,25.791c-0.667,0.667-0.667,1.751,0,2.418l11.498,11.498
		C31.194,39.902,31.45,40,31.706,40s0.512-0.098,0.707-0.293c0.391-0.391,0.391-1.023,0-1.414L21.12,27l11.293-11.293
		C32.804,15.316,32.804,14.684,32.413,14.293z"/>
</g>
<g>
</g>
<g>
</g>
<g>
</g>
<g>
</g>
<g>
</g>
<g>
</g>
<g>
</g>
<g>
</g>
<g>
</g>
<g>
</g>
<g>
</g>
<g>
</g>
<g>
</g>
<g>
</g>
<g>
</g>
</symbol><symbol id="arrow-right" viewBox="0 0 488.072 488.072">
<g>
	<g>
		<path d="M165.568,367.452c-3.456,0-6.817-1.794-8.669-5.002c-2.762-4.783-1.123-10.897,3.66-13.66l181.438-104.754
			L160.559,139.283c-4.783-2.761-6.422-8.878-3.66-13.66c2.762-4.783,8.877-6.42,13.66-3.66l196.438,113.413
			c3.094,1.786,5,5.087,5,8.66c0,3.572-1.906,6.874-5,8.66L170.559,366.11C168.984,367.02,167.264,367.452,165.568,367.452z"/>
	</g>
	<g>
		<path d="M244.036,488.072c-65.184,0-126.467-25.384-172.56-71.478C25.385,370.503,0,309.221,0,244.036
			c0-65.185,25.385-126.467,71.476-172.56C117.569,25.385,178.851,0,244.036,0c65.185,0,126.467,25.385,172.559,71.476
			c46.094,46.092,71.478,107.375,71.478,172.56c0,65.185-25.384,126.467-71.478,172.56
			C370.503,462.688,309.22,488.072,244.036,488.072z M244.036,20c-59.842,0-116.102,23.304-158.417,65.619S20,184.194,20,244.036
			s23.304,116.103,65.619,158.417c42.315,42.315,98.575,65.619,158.417,65.619s116.102-23.304,158.417-65.619
			c42.314-42.314,65.618-98.575,65.618-158.417s-23.304-116.102-65.618-158.417S303.878,20,244.036,20z"/>
	</g>
</g>
<g>
</g>
<g>
</g>
<g>
</g>
<g>
</g>
<g>
</g>
<g>
</g>
<g>
</g>
<g>
</g>
<g>
</g>
<g>
</g>
<g>
</g>
<g>
</g>
<g>
</g>
<g>
</g>
<g>
</g>
</symbol><symbol id="email" viewBox="0 0 470 470">
  <g>
    <path d="m465.115,137.964c-3.342-3.609-8.103-5.884-13.398-5.884h-44.823v-124.58c0-4.143-3.357-7.5-7.5-7.5h-328.789c-4.143,0-7.5,3.357-7.5,7.5v124.579h-44.823c-5.294,0-10.055,2.276-13.397,5.884-3.021,3.263-4.885,7.612-4.885,12.398v301.356c0,10.082 8.201,18.283 18.282,18.283h433.436c10.081,0 18.282-8.201 18.282-18.282v-301.357c5.68434e-14-4.786-1.864-9.135-4.885-12.397zm-394.51,31.524c4.143,0 7.5-3.357 7.5-7.5v-146.988h313.789v146.988c0,4.143 3.357,7.5 7.5,7.5s7.5-3.357 7.5-7.5v-14.909h38.007l-201.46,209.814c-2.257,2.351-5.255,3.646-8.441,3.646s-6.185-1.295-8.441-3.646l-201.461-209.814h38.007v14.909c0,4.143 3.358,7.5 7.5,7.5zm381.113,285.512h-433.436c-1.779,0-3.282-1.503-3.282-3.282v-293.498l137.134,142.82-120.665,125.669c-2.868,2.987-2.772,7.735 0.216,10.604 1.454,1.396 3.325,2.09 5.193,2.09 1.971,0 3.938-0.771 5.411-2.306l120.243-125.229 53.207,55.413c5.112,5.324 11.953,8.257 19.262,8.257s14.149-2.933 19.262-8.257l53.207-55.413 47.031,48.98c1.473,1.534 3.44,2.306 5.411,2.306 1.868,0 3.739-0.694 5.193-2.09 2.988-2.869 3.084-7.617 0.216-10.604l-47.453-49.42 137.132-142.82v293.498c0,1.779-1.503,3.282-3.282,3.282z"/>
    <path d="m389.19,375.321c-2.869-2.989-7.616-3.083-10.604-0.216-2.988,2.869-3.084,7.617-0.216,10.604l49.34,51.387c1.473,1.534 3.44,2.306 5.411,2.306 1.868,0 3.739-0.694 5.193-2.09 2.988-2.869 3.084-7.617 0.216-10.604l-49.34-51.387z"/>
    <path d="m146.396,248h141.698c12.92,0 23.432-10.512 23.432-23.432 0-4.613-1.341-8.921-3.651-12.551 6.143-4.229 10.177-11.309 10.177-19.313 0-4.613-1.34-8.92-3.651-12.55 6.143-4.229 10.177-11.309 10.177-19.313 0-4.613-1.341-8.921-3.652-12.551 6.144-4.229 10.178-11.309 10.178-19.313 0-12.92-10.512-23.432-23.432-23.432l-42.542,.001c7.102-15.211 10.931-33.264 10.931-52.114 0-12.92-10.512-23.432-23.432-23.432s-23.432,10.512-23.432,23.432c0,28.735-23.378,52.113-52.113,52.113h-30.687c-4.143,0-7.5,3.357-7.5,7.5v127.455c-0.001,4.143 3.357,7.5 7.499,7.5zm97.8-194.568c0-4.649 3.782-8.432 8.432-8.432s8.432,3.782 8.432,8.432c0,21.038-5.297,40.756-14.914,55.521-1.502,2.306-1.621,5.249-0.31,7.668s3.842,3.926 6.594,3.926l55.241-.001c4.649,0 8.432,3.782 8.432,8.432s-3.782,8.432-8.432,8.432h-19.576c-4.143,0-7.5,3.357-7.5,7.5s3.357,7.5 7.5,7.5h13.051c4.649,0 8.432,3.783 8.432,8.433s-3.782,8.432-8.432,8.432h-13.051c-4.143,0-7.5,3.357-7.5,7.5s3.357,7.5 7.5,7.5h6.525c4.649,0 8.432,3.782 8.432,8.432s-3.782,8.432-8.432,8.432h-6.525c-4.143,0-7.5,3.357-7.5,7.5s3.357,7.5 7.5,7.5c4.649,0 8.432,3.783 8.432,8.433s-3.783,8.428-8.432,8.428h-103.512v-112.885c33.488-3.742 59.613-32.213 59.613-66.683zm-90.3,67.113h15.687v112.455h-15.687v-112.455z"/>
  </g>
</symbol><symbol id="phone" viewBox="0 0 544.49 544.489">
<g>
	<g>
		<circle cx="243.92" cy="23.18" r="1.606"/>
		<circle cx="248.616" cy="23.18" r="1.606"/>
		<circle cx="253.301" cy="23.18" r="1.606"/>
		<circle cx="257.987" cy="23.18" r="1.606"/>
		<circle cx="262.682" cy="23.18" r="1.606"/>
		<circle cx="267.377" cy="23.18" r="1.606"/>
		<circle cx="272.063" cy="23.18" r="1.606"/>
		<circle cx="276.749" cy="23.18" r="1.606"/>
		<circle cx="281.434" cy="23.18" r="1.606"/>
		<circle cx="286.149" cy="23.18" r="1.606"/>
		<circle cx="290.834" cy="23.18" r="1.606"/>
		<circle cx="295.52" cy="23.18" r="1.606"/>
		<circle cx="300.206" cy="23.18" r="1.606"/>
		<circle cx="304.901" cy="23.18" r="1.606"/>
		<path d="M392.923,0H151.576c-19.508,0-35.314,15.807-35.314,35.314v473.86c0,19.507,15.807,35.314,35.314,35.314h241.338
			c19.508,0,35.314-15.808,35.314-35.314V35.314C428.238,15.807,412.431,0,392.923,0z M368.233,20.971
			c2.151,0,3.901,1.75,3.901,3.901c0,2.161-1.759,3.901-3.901,3.901c-2.161,0-3.901-1.75-3.901-3.901
			C364.322,22.721,366.072,20.971,368.233,20.971z M230.476,17.604h87.219c3.089,0,5.575,2.496,5.575,5.565
			c0,3.079-2.486,5.565-5.575,5.565h-87.219c-3.089,0-5.575-2.496-5.575-5.565C224.911,20.101,227.387,17.604,230.476,17.604z
			 M194.894,521.262h-8.587c-0.574,0-1.033-0.469-1.033-1.043c0-0.563,0.459-1.042,1.033-1.042h8.587
			c0.583,0,1.042,0.479,1.042,1.042C195.926,520.793,195.467,521.262,194.894,521.262z M194.894,517.073h-8.587
			c-0.574,0-1.033-0.459-1.033-1.033c0-0.573,0.459-1.042,1.033-1.042h8.587c0.583,0,1.042,0.469,1.042,1.042
			C195.926,516.614,195.467,517.073,194.894,517.073z M202.123,519.798c0,1.234-0.995,2.238-2.228,2.238
			c-1.234,0-2.238-1.004-2.238-2.238v-7.372h-14.124v7.372c0,1.234-0.994,2.238-2.228,2.238c-1.233,0-2.237-1.004-2.237-2.238
			v-9.601c0-1.233,1.004-2.237,2.237-2.237h18.59c1.233,0,2.228,1.004,2.228,2.237V519.798L202.123,519.798z M300.206,519.11
			c0,4.876-3.959,8.826-8.836,8.826h-38.623c-4.887,0-8.836-3.95-8.836-8.826v-7.727c0-4.877,3.949-8.826,8.836-8.826h38.623
			c4.877,0,8.836,3.949,8.836,8.826V519.11z M357.858,522.457h-7.01c-1.233,0-2.228-1.004-2.228-2.238
			c0-1.233,0.994-2.228,2.228-2.228h7.01c1.511,0,2.734-1.177,2.734-2.62c0-1.444-1.224-2.61-2.734-2.61h-5.91
			c-0.22,0.306-0.497,0.459-0.994,0.497c-0.124,0.066-0.335-0.029-0.487-0.096l-3.644-1.54c-0.44-0.191-0.736-0.621-0.736-1.1
			c0-0.478,0.287-0.918,0.727-1.1l3.644-1.539c0.439-0.191,0.966-0.086,1.31,0.258c0.048,0.048,0.096,0.096,0.134,0.153h5.958
			c3.969,0,7.19,3.184,7.19,7.086C365.048,519.282,361.827,522.457,357.858,522.457z M404.685,491.513H136.859V54.449h267.826
			V491.513z"/>
	</g>
</g>
<g>
</g>
<g>
</g>
<g>
</g>
<g>
</g>
<g>
</g>
<g>
</g>
<g>
</g>
<g>
</g>
<g>
</g>
<g>
</g>
<g>
</g>
<g>
</g>
<g>
</g>
<g>
</g>
<g>
</g>
</symbol><symbol id="vk" viewBox="0 0 304.36 304.36">
<g id="XMLID_1_">
	<path id="XMLID_807_" style="fill-rule:evenodd;clip-rule:evenodd;" d="M261.945,175.576c10.096,9.857,20.752,19.131,29.807,29.982
		c4,4.822,7.787,9.798,10.684,15.394c4.105,7.955,0.387,16.709-6.746,17.184l-44.34-0.02c-11.436,0.949-20.559-3.655-28.23-11.474
		c-6.139-6.253-11.824-12.908-17.727-19.372c-2.42-2.642-4.953-5.128-7.979-7.093c-6.053-3.929-11.307-2.726-14.766,3.587
		c-3.523,6.421-4.322,13.531-4.668,20.687c-0.475,10.441-3.631,13.186-14.119,13.664c-22.414,1.057-43.686-2.334-63.447-13.641
		c-17.422-9.968-30.932-24.04-42.691-39.971C34.828,153.482,17.295,119.395,1.537,84.353C-2.01,76.458,0.584,72.22,9.295,72.07
		c14.465-0.281,28.928-0.261,43.41-0.02c5.879,0.086,9.771,3.458,12.041,9.012c7.826,19.243,17.402,37.551,29.422,54.521
		c3.201,4.518,6.465,9.036,11.113,12.216c5.142,3.521,9.057,2.354,11.476-3.374c1.535-3.632,2.207-7.544,2.553-11.434
		c1.146-13.383,1.297-26.743-0.713-40.079c-1.234-8.323-5.922-13.711-14.227-15.286c-4.238-0.803-3.607-2.38-1.555-4.799
		c3.564-4.172,6.916-6.769,13.598-6.769h50.111c7.889,1.557,9.641,5.101,10.721,13.039l0.043,55.663
		c-0.086,3.073,1.535,12.192,7.07,14.226c4.43,1.448,7.35-2.096,10.008-4.905c11.998-12.734,20.561-27.783,28.211-43.366
		c3.395-6.852,6.314-13.968,9.143-21.078c2.096-5.276,5.385-7.872,11.328-7.757l48.229,0.043c1.43,0,2.877,0.021,4.262,0.258
		c8.127,1.385,10.354,4.881,7.844,12.817c-3.955,12.451-11.65,22.827-19.174,33.251c-8.043,11.129-16.645,21.877-24.621,33.072
		C252.26,161.544,252.842,166.697,261.945,175.576L261.945,175.576z M261.945,175.576"/>
</g>
<g>
</g>
<g>
</g>
<g>
</g>
<g>
</g>
<g>
</g>
<g>
</g>
<g>
</g>
<g>
</g>
<g>
</g>
<g>
</g>
<g>
</g>
<g>
</g>
<g>
</g>
<g>
</g>
<g>
</g>
</symbol></svg>